<svg width="150" height="150" viewBox="0 0 150 150" fill="none" xmlns="http://www.w3.org/2000/svg">
<g opacity="0.9">
<path d="M51.869 85.7955C50.5199 87.4818 48.4962 88.325 46.4726 88.325C44.449 88.325 42.4254 87.3132 41.0763 85.7955C40.5704 85.1209 39.3899 84.9523 38.7154 85.4582C38.0409 85.9641 37.8722 87.1446 38.3781 87.8191C40.4018 90.3486 43.2686 91.6977 46.4807 91.6977C49.6928 91.6977 52.5595 90.3486 54.5832 87.8191C55.0891 87.1446 55.0891 85.9641 54.2459 85.4582C53.4027 84.9523 52.3909 85.1209 51.885 85.7955H51.869Z" fill="#FBAF17"/>
<path d="M73.301 95.2511H71.6146C70.7714 89.5175 65.881 85.125 59.9708 85.125C58.959 85.125 58.2844 85.7995 58.2844 86.8114C58.2844 87.8232 58.959 88.4977 59.9708 88.4977C64.018 88.4977 67.3987 91.3645 68.2419 95.2511H42.9306C40.0638 95.2511 37.8715 97.4434 37.8715 100.31V115.495H32.8125C31.8007 115.495 31.1261 116.17 31.1261 117.182C31.1261 118.194 31.8007 118.868 32.8125 118.868H37.8715V125.622H24.3727V96.9375C24.3727 92.2157 28.0827 88.4977 32.8125 88.4977C33.8243 88.4977 34.4988 87.8232 34.4988 86.8114C34.4988 85.7995 33.8243 85.125 32.8125 85.125C26.2277 85.125 21 90.3527 21 96.9375V127.316C21 128.328 21.6745 129.002 22.6863 129.002H76.6897C77.7015 129.002 78.3761 128.328 78.3761 127.316V100.318C78.3761 97.6201 76.1838 95.2592 73.317 95.2592L73.301 95.2511ZM74.9873 125.63H41.2362V100.318C41.2362 99.3064 41.9108 98.6319 42.9226 98.6319H73.301C74.1442 98.6319 74.9873 99.3064 74.9873 100.318V125.63Z" fill="#FBAF17"/>
<path d="M123.924 21H49.6762C46.8094 21 44.6172 23.1923 44.6172 26.0591V39.5579C44.6172 40.5697 45.2917 41.2442 46.3035 41.2442C47.3153 41.2442 47.9899 40.5697 47.9899 39.5579V26.0591C47.9899 25.0472 48.6644 24.3727 49.6762 24.3727H123.924C124.936 24.3727 125.61 25.0472 125.61 26.0591V110.433C125.61 111.445 124.936 112.119 123.924 112.119H83.4193C82.4075 112.119 81.733 112.794 81.733 113.806C81.733 114.817 82.4075 115.492 83.4193 115.492H123.924C126.791 115.492 128.983 113.3 128.983 110.433V26.0591C128.983 23.3609 126.791 21 123.924 21Z" fill="#FBAF17"/>
<path d="M118.866 54.7433C118.866 42.5936 109.077 32.8047 96.9269 32.8047C84.7772 32.8047 74.9883 42.5936 74.9883 54.7433C74.9883 66.8931 84.7772 76.6819 96.9269 76.6819C109.077 76.6819 118.866 66.8931 118.866 54.7433ZM78.361 54.7433C78.361 44.4485 86.6321 36.1774 96.9269 36.1774C107.222 36.1774 115.493 44.4485 115.493 54.7433C115.493 65.0381 107.222 73.3092 96.9269 73.3092C86.6321 73.3092 78.361 65.0381 78.361 54.7433Z" fill="#FBAF17"/>
<path d="M85.1141 78.375C84.1023 78.375 83.4277 79.0495 83.4277 80.0613V98.6273C83.4277 99.3018 83.765 99.8077 84.2709 100.145C84.7768 100.482 85.4514 100.482 85.9573 100.145L96.9266 93.8975L107.896 100.145C108.233 100.314 108.402 100.314 108.739 100.314C109.076 100.314 109.245 100.314 109.582 100.145C110.088 99.8077 110.425 99.3018 110.425 98.6273V80.0613C110.425 79.0495 109.751 78.375 108.739 78.375C107.727 78.375 107.053 79.0495 107.053 80.0613V95.7524L97.7697 90.5248C97.2638 90.1875 96.5893 90.1875 96.0834 90.5248L86.8004 95.7524V80.0613C86.8004 79.2182 86.1259 78.375 85.1141 78.375Z" fill="#FBAF17"/>
<path d="M104.683 66.3834C105.189 66.0461 105.526 65.3716 105.357 64.6971L104.177 57.6064L109.236 52.5473C109.742 52.0414 109.91 51.3668 109.742 50.8609C109.573 50.1864 109.067 49.8491 108.393 49.6805L101.302 48.6687L98.098 42.2525C97.5921 41.0721 95.5685 41.0721 95.0626 42.2525L91.8585 48.6687L84.7678 49.6805C84.0933 49.8491 83.5873 50.1864 83.4187 50.8609C83.2501 51.5355 83.4187 52.21 83.9246 52.5473L88.9837 57.6064L87.8032 64.6971C87.6346 65.3716 87.9719 66.0461 88.4778 66.3834C88.815 66.552 89.1523 66.7207 89.4896 66.7207C89.8268 66.7207 89.9955 66.7207 90.3328 66.552L96.7489 63.1793L103.165 66.552C103.502 66.7207 104.177 66.7207 104.683 66.3834ZM97.4315 59.638C97.2629 59.4694 96.9256 59.4694 96.5883 59.4694C96.251 59.4694 96.0824 59.4694 95.7451 59.638L91.6979 61.8303L92.5411 57.2771C92.7097 56.7712 92.3724 56.0967 92.0352 55.7594L88.6625 52.5553L93.2156 51.8808C93.7215 51.8808 94.2274 51.3749 94.5647 51.0376L96.5883 46.8217L98.6119 51.0376C98.7806 51.5435 99.2865 51.8808 99.961 51.8808L104.514 52.5553L101.141 55.7594C100.804 56.0967 100.636 56.7712 100.636 57.2771L101.479 61.8303L97.4315 59.638Z" fill="#FBAF17"/>
<path d="M58.1072 102.844C53.0481 102.844 48.8242 107.06 48.8242 112.127C48.8242 117.194 53.0401 121.41 58.1072 121.41C63.1743 121.41 67.3902 117.194 67.3902 112.127C67.3902 107.06 63.1743 102.844 58.1072 102.844ZM58.1072 118.029C54.9031 118.029 52.1969 115.331 52.1969 112.119C52.1969 108.907 54.8951 106.208 58.1072 106.208C61.3193 106.208 64.0174 108.907 64.0174 112.119C64.0174 115.331 61.3193 118.029 58.1072 118.029Z" fill="#FBAF17"/>
<path d="M46.2957 81.7442C53.7237 81.7442 59.7945 75.6654 59.7945 68.2454V63.1863C59.7945 62.1745 59.12 61.5 58.1082 61.5C57.0964 61.5 56.4218 62.1745 56.4218 63.1863V68.2454C56.4218 73.8104 51.8687 78.3715 46.2957 78.3715C40.7227 78.3715 36.1696 73.8184 36.1696 68.2454V63.1863C36.1696 62.1745 35.495 61.5 34.4832 61.5C33.4714 61.5 32.7969 62.1745 32.7969 63.1863V68.2454C32.7969 75.842 38.8758 81.7442 46.2957 81.7442Z" fill="#FBAF17"/>
<path d="M34.4834 58.1238H58.1084C59.1202 58.1238 59.7948 57.4493 59.7948 56.4375V53.0648C59.7948 48.343 56.0848 44.625 51.355 44.625H41.2289C36.5071 44.625 32.7891 48.335 32.7891 53.0648V56.4375C32.7891 57.4493 33.6322 58.1238 34.4754 58.1238H34.4834ZM36.1778 53.0568C36.1778 50.19 38.3701 47.9977 41.2369 47.9977H51.363C54.2298 47.9977 56.4221 50.19 56.4221 53.0568V54.7431H36.1698V53.0568H36.1778Z" fill="#FBAF17"/>
</g>
</svg>
