<svg width="150" height="150" viewBox="0 0 150 150" fill="none" xmlns="http://www.w3.org/2000/svg">
<g opacity="0.9">
<path d="M119.087 84.2708C119.087 83.1804 119.964 82.2954 121.062 82.2954C122.161 82.2954 123.038 83.1725 123.038 84.2708V115.245C123.038 119.97 119.174 123.842 114.441 123.842H98.4481C97.3576 123.842 96.4727 122.965 96.4727 121.867C96.4727 120.768 97.3576 119.891 98.4481 119.891H114.441C116.993 119.891 119.095 117.797 119.095 115.245V84.2708H119.087ZM32.4301 60.1235C32.4301 61.2139 31.5531 62.0989 30.4547 62.0989C29.3564 62.0989 28.4793 61.2218 28.4793 60.1235V36.0315C28.4793 31.2984 32.3432 27.4345 37.0763 27.4345H66.4545C67.5449 27.4345 68.4299 28.3116 68.4299 29.4099C68.4299 30.5082 67.5528 31.3853 66.4545 31.3853H37.0763C34.5241 31.3853 32.4222 33.4793 32.4222 36.0394V60.1393L32.4301 60.1235ZM88.0733 54.3158C87.2278 53.6284 87.0935 52.3878 87.773 51.5423C88.4604 50.6969 89.6931 50.5625 90.5465 51.2421L93.7308 53.7943L100.566 46.027C101.285 45.2052 102.541 45.1262 103.347 45.8453C104.169 46.5643 104.248 47.8128 103.529 48.6266L95.4455 57.8083C94.7501 58.5985 93.557 58.7012 92.7273 58.0375L88.0733 54.3079V54.3158ZM95.6746 32.5864C106.358 32.5864 115.01 41.2465 115.01 51.9216C115.01 62.5967 106.358 71.2647 95.6746 71.2647C84.9916 71.2647 76.3315 62.6046 76.3315 51.9216C76.3315 41.2386 84.9916 32.5864 95.6746 32.5864ZM106.555 41.0411C100.542 35.0359 90.7993 35.0359 84.7862 41.0411C78.781 47.0463 78.781 56.7969 84.7862 62.8021C90.7914 68.8073 100.542 68.8073 106.555 62.8021C112.56 56.7969 112.56 47.0463 106.555 41.0411ZM100.661 19.9833L103.647 22.7489C104.406 23.46 105.315 23.7524 106.365 23.6259L110.403 23.1439C114.228 22.6936 117.736 25.2379 118.479 29.0227L119.269 33.0131C119.474 34.0403 120.027 34.8146 120.936 35.3203L124.492 37.3036C127.858 39.1842 129.193 43.301 127.581 46.7935L125.875 50.4835C125.432 51.4317 125.432 52.4036 125.875 53.3439L127.581 57.0339C129.193 60.5265 127.858 64.6432 124.492 66.5238L120.936 68.5071C120.027 69.0128 119.466 69.7871 119.269 70.8143L118.479 74.8047C117.728 78.5737 114.228 81.1338 110.403 80.6835L109.305 80.5491V104.238C109.305 105.882 107.369 106.854 106.026 105.724L101.506 102.018C97.2391 120.026 81.0961 133 62.2982 133C40.0394 133 22 114.953 22 92.7018C22 73.1453 35.9859 56.6152 54.8391 53.0831V48.5476C49.8611 47.7179 47.7671 41.5389 51.4256 37.8883C52.5634 36.7505 54.1438 36.0315 55.8742 36.0315L69.0778 36.0473L70.4053 35.3045C71.306 34.7909 71.8671 34.0245 72.0725 32.9973L72.8706 29.0069C73.6212 25.2379 77.1216 22.6778 80.9381 23.1281L84.9837 23.6101C86.0267 23.7366 86.9433 23.4442 87.7019 22.7331L90.6887 19.9675C93.5175 17.3442 97.8238 17.3442 100.661 19.9675V19.9833ZM105.354 80.2252C104.714 80.3279 104.137 80.6281 103.647 81.0943L100.661 83.8599C97.8317 86.4753 93.5175 86.4753 90.6887 83.8599L87.7019 81.0943C87.212 80.636 86.6273 80.3358 85.9872 80.2252V100.082L94.4024 93.1917C95.1136 92.5912 96.1724 92.5596 96.9231 93.1759L105.362 100.09V80.2252H105.354ZM82.0443 80.557L80.9381 80.6914C77.1216 81.1417 73.6133 78.5895 72.8706 74.8126L72.0725 70.8223C71.8671 69.795 71.3139 69.0207 70.4053 68.515L66.8495 66.5317C65.7986 65.947 64.9453 65.141 64.321 64.2007C47.8067 63.0392 33.7339 76.1242 33.7339 92.7018C33.7339 109.279 46.5187 121.266 62.2982 121.266C74.3877 121.266 84.9837 113.704 89.0847 102.642L85.2682 105.771C83.9644 106.838 82.0443 105.858 82.0443 104.246V80.557ZM63.0805 60.2025C63.0647 58.6617 63.436 57.7372 64.0603 56.3939C43.2158 55.4378 25.9429 71.9759 25.9429 92.7097C25.9429 113.444 42.2202 129.065 62.2982 129.065C79.9583 129.065 94.9793 116.375 98.0767 99.2206L95.6746 97.2531L94.3155 98.3673C92.9881 105.929 89.0451 112.59 83.4587 117.386C70.5633 128.464 51.3229 127.722 39.3045 115.711C26.6066 103.006 26.6066 82.4218 39.3045 69.7318C45.3414 63.695 53.883 59.9575 63.0805 60.2183V60.2025ZM65.7275 52.5537C65.8697 51.8584 65.767 51.1631 65.4588 50.4914L64.6055 48.6424H58.782V52.5537C61.113 52.3562 63.357 52.3562 65.7275 52.5537ZM63.1437 44.6995C62.9303 43.0639 63.2622 41.4046 64.0919 39.9981H55.8663C53.8119 39.9981 52.7136 42.5029 54.207 44.0042C55.005 44.7944 55.7952 44.6995 56.8066 44.6995H63.1437ZM100.977 25.633L97.9898 22.8674C96.686 21.6663 94.6553 21.6663 93.3515 22.8674L90.3647 25.633C88.7449 27.1343 86.7063 27.798 84.5175 27.5451L80.4719 27.0631C78.7019 26.8498 77.0821 28.0271 76.7265 29.7813L75.9364 33.7716C75.5018 35.9525 74.2454 37.6829 72.3096 38.7654L68.7538 40.7487C67.2051 41.6179 66.5888 43.5301 67.3315 45.1499L69.0304 48.84C70.1208 51.1947 69.8838 53.3439 68.7538 55.6038L67.3315 58.6933C66.5809 60.3131 67.1972 62.2253 68.7538 63.0945L72.3096 65.0778C74.2454 66.1603 75.5018 67.8908 75.9364 70.0637L76.7265 74.0619C77.0742 75.8082 78.7019 76.9855 80.4719 76.7801L84.5175 76.2981C86.7063 76.0373 88.7449 76.701 90.3647 78.2103L93.3515 80.9758C94.6553 82.1769 96.686 82.1769 97.9898 80.9758L100.977 78.2103C102.604 76.7089 104.643 76.0452 106.832 76.2981L110.877 76.7801C112.647 76.9934 114.267 75.8161 114.623 74.0619L115.413 70.0637C115.847 67.8908 117.104 66.1603 119.04 65.0778L122.587 63.0945C124.144 62.2253 124.76 60.3131 124.01 58.6933L122.303 55.0032C121.371 52.9883 121.371 50.8549 122.303 48.84L124.01 45.1499C124.76 43.5301 124.144 41.6179 122.587 40.7487L119.04 38.7654C117.104 37.6829 115.847 35.9525 115.413 33.7716L114.623 29.7813C114.275 28.035 112.647 26.8577 110.877 27.0631L106.832 27.5451C104.643 27.8059 102.604 27.1422 100.977 25.633ZM60.3149 79.5535C60.3149 78.4631 61.1999 77.5781 62.2903 77.5781C63.3807 77.5781 64.2657 78.4552 64.2657 79.5535V85.701C68.0348 86.7598 70.3262 90.6553 69.3464 94.5113L76.2999 98.5253C77.248 99.0705 77.5641 100.272 77.0189 101.212C76.4737 102.16 75.2647 102.476 74.3245 101.931L67.3789 97.9248C62.7802 102.405 55.0129 99.1337 55.0129 92.7097C55.0129 89.4068 57.2254 86.5702 60.3149 85.701V79.5456V79.5535ZM64.645 90.355C62.5511 88.2611 58.9558 89.7545 58.9558 92.7097C58.9558 95.6649 62.5511 97.1583 64.645 95.0644C65.9487 93.7606 65.9487 91.6509 64.645 90.355ZM60.3149 67.4088C60.3149 66.3183 61.1999 65.4334 62.2903 65.4334C63.3807 65.4334 64.2657 66.3104 64.2657 67.4088V70.4193C64.2657 71.5097 63.3886 72.3947 62.2903 72.3947C61.192 72.3947 60.3149 71.5176 60.3149 70.4193V67.4088ZM36.9973 94.6772C35.9068 94.6772 35.0219 93.8001 35.0219 92.7018C35.0219 91.6035 35.8989 90.7264 36.9973 90.7264H40.0078C41.0982 90.7264 41.9832 91.6035 41.9832 92.7018C41.9832 93.8001 41.1061 94.6772 40.0078 94.6772H36.9973ZM64.2657 118.011C64.2657 119.101 63.3886 119.986 62.2903 119.986C61.192 119.986 60.3149 119.109 60.3149 118.011V114.992C60.3149 113.902 61.1999 113.017 62.2903 113.017C63.3807 113.017 64.2657 113.894 64.2657 114.992V118.011Z" fill="#FBAF17"/>
</g>
</svg>
