<svg width="150" height="150" viewBox="0 0 150 150" fill="none" xmlns="http://www.w3.org/2000/svg">
<g opacity="0.9">
<path d="M74.5577 33.6952C73.7791 33.6952 73.1465 33.0626 73.1465 32.284V24.2628C73.1465 23.4842 73.7791 22.8516 74.5577 22.8516C75.3363 22.8516 75.9689 23.4842 75.9689 24.2628V32.284C75.9689 33.0626 75.3363 33.6952 74.5577 33.6952Z" fill="#FBAF17"/>
<path d="M74.5572 25.6847C71.0697 25.6847 68.2148 22.8299 68.2148 19.3424C68.2148 15.8549 71.0697 13 74.5572 13C78.0447 13 80.8996 15.8549 80.8996 19.3424C80.8996 22.8299 78.0447 25.6847 74.5572 25.6847ZM74.5572 15.8224C72.6269 15.8224 71.0373 17.4121 71.0373 19.3424C71.0373 21.2727 72.6269 22.8623 74.5572 22.8623C76.4875 22.8623 78.0771 21.2727 78.0771 19.3424C78.0771 17.4121 76.4875 15.8224 74.5572 15.8224Z" fill="#FBAF17"/>
<path d="M37.5558 55.0409C37.3287 55.0409 37.0692 54.9842 36.8664 54.8382L29.9482 50.8316C29.2832 50.4585 29.0561 49.5907 29.4291 48.9013C29.8022 48.2363 30.67 48.0092 31.3594 48.3823L38.2776 52.3888C38.9427 52.7619 39.1698 53.6297 38.7967 54.3191C38.5047 54.7814 38.0506 55.0409 37.5558 55.0409Z" fill="#FBAF17"/>
<path d="M26.3397 53.5105C25.2448 53.5105 24.1499 53.2186 23.1686 52.6427C20.1434 50.8827 19.1052 47.0222 20.8652 43.9889C22.6252 40.9637 26.4857 39.9255 29.519 41.6855C32.5523 43.4455 33.5824 47.306 31.8224 50.3393C30.987 51.8073 29.6001 52.8455 27.9618 53.2834C27.4428 53.4294 26.8912 53.5105 26.3478 53.5105H26.3397ZM26.3641 43.6482C25.1556 43.6482 23.9715 44.2808 23.3064 45.4082C22.3251 47.0789 22.9009 49.2444 24.6041 50.2258C25.4151 50.6881 26.3641 50.8341 27.2887 50.5745C28.2132 50.3475 28.9594 49.7392 29.4217 48.9281C30.4031 47.2574 29.8272 45.0919 28.124 44.1105C27.5482 43.7942 26.9399 43.6482 26.3641 43.6482Z" fill="#FBAF17"/>
<path d="M30.6376 101.757C30.151 101.757 29.6887 101.498 29.4291 101.068C29.0561 100.403 29.2832 99.5431 29.9482 99.1376L36.8664 95.1311C37.5315 94.7255 38.3912 94.9851 38.7967 95.6501C39.1698 96.3152 38.9427 97.1749 38.2776 97.5804L31.3594 101.587C31.0999 101.701 30.8728 101.757 30.6376 101.757Z" fill="#FBAF17"/>
<path d="M26.3644 109.166C24.1745 109.166 22.0415 108.039 20.8574 105.995C19.0974 102.97 20.1355 99.0767 23.1607 97.3411C24.6287 96.5057 26.3319 96.2705 27.9783 96.7085C29.6248 97.1383 30.9792 98.2089 31.8389 99.6526C33.5989 102.678 32.5607 106.571 29.5355 108.306C28.5299 108.882 27.4268 109.174 26.3644 109.174V109.166ZM26.34 99.3038C25.7317 99.3038 25.1316 99.4741 24.5801 99.7661C22.9093 100.747 22.3335 102.913 23.2824 104.584C24.2638 106.254 26.4292 106.83 28.1 105.881C29.7707 104.9 30.3466 102.735 29.3977 101.064C28.9354 100.253 28.1568 99.6769 27.2646 99.4174C26.9726 99.3281 26.6563 99.3038 26.34 99.3038Z" fill="#FBAF17"/>
<path d="M74.5577 127.133C73.7791 127.133 73.1465 126.5 73.1465 125.722V117.7C73.1465 116.922 73.7791 116.289 74.5577 116.289C75.3363 116.289 75.9689 116.922 75.9689 117.7V125.722C75.9689 126.5 75.3363 127.133 74.5577 127.133Z" fill="#FBAF17"/>
<path d="M74.5572 136.997C71.0697 136.997 68.2148 134.142 68.2148 130.655C68.2148 127.167 71.0697 124.312 74.5572 124.312C78.0447 124.312 80.8996 127.167 80.8996 130.655C80.8996 134.142 78.0447 136.997 74.5572 136.997ZM74.5572 127.135C72.6269 127.135 71.0373 128.725 71.0373 130.655C71.0373 132.585 72.6269 134.175 74.5572 134.175C76.4875 134.175 78.0771 132.585 78.0771 130.655C78.0771 128.725 76.4875 127.135 74.5572 127.135Z" fill="#FBAF17"/>
<path d="M118.482 101.76C118.254 101.76 117.995 101.703 117.792 101.557L110.874 97.5504C110.209 97.1773 109.982 96.3095 110.355 95.6201C110.728 94.955 111.596 94.7279 112.285 95.101L119.203 99.1076C119.868 99.4807 120.096 100.348 119.722 101.038C119.463 101.524 118.976 101.76 118.482 101.76Z" fill="#FBAF17"/>
<path d="M122.75 109.173C121.679 109.173 120.584 108.914 119.579 108.338C118.111 107.503 117.073 106.116 116.635 104.502C116.205 102.855 116.432 101.16 117.267 99.6842C119.027 96.659 122.888 95.6208 125.921 97.3808C128.946 99.1408 129.984 103.001 128.224 106.035C127.073 108.022 124.94 109.182 122.742 109.182L122.75 109.173ZM122.774 99.3111C121.566 99.3111 120.382 99.9437 119.717 101.071C119.254 101.882 119.108 102.831 119.368 103.756C119.595 104.68 120.203 105.426 121.014 105.889C122.685 106.87 124.85 106.294 125.832 104.591C126.813 102.92 126.237 100.755 124.534 99.7734C123.958 99.4571 123.35 99.3111 122.774 99.3111Z" fill="#FBAF17"/>
<path d="M111.556 55.0464C111.069 55.0464 110.607 54.7868 110.347 54.357C109.974 53.6919 110.201 52.8322 110.866 52.4267L117.784 48.4201C118.449 48.0146 119.309 48.2741 119.715 48.9392C120.088 49.6042 119.861 50.4639 119.196 50.8695L112.277 54.876C112.05 54.9896 111.791 55.0464 111.556 55.0464Z" fill="#FBAF17"/>
<path d="M122.773 53.5113C120.583 53.5113 118.45 52.3839 117.266 50.3401C115.506 47.3149 116.544 43.4219 119.569 41.6862C122.594 39.9263 126.487 40.9968 128.223 43.9896C129.983 47.0148 128.945 50.9078 125.919 52.6434C124.938 53.2193 123.843 53.5113 122.773 53.5113ZM122.748 43.649C122.14 43.649 121.54 43.795 120.988 44.1113C119.318 45.0926 118.742 47.2581 119.691 48.9289C120.672 50.5996 122.837 51.1755 124.508 50.2265C126.179 49.2452 126.755 47.0797 125.806 45.4089C125.173 44.2816 123.989 43.649 122.748 43.649Z" fill="#FBAF17"/>
<path d="M74.5564 119.124C50.2169 119.124 30.4355 99.3431 30.4355 75.0036C30.4355 50.6642 50.2169 30.8828 74.5564 30.8828C98.8958 30.8828 118.677 50.6642 118.677 75.0036C118.677 99.3431 98.8958 119.124 74.5564 119.124ZM74.5564 33.6971C51.7741 33.6971 33.258 52.2376 33.258 74.9955C33.258 97.7534 51.7985 116.294 74.5564 116.294C97.3143 116.294 115.855 97.7778 115.855 74.9955C115.855 52.2133 97.3386 33.6971 74.5564 33.6971Z" fill="#FBAF17"/>
<path d="M74.5551 110.617C65.5606 110.617 58.4883 94.9553 58.4883 75.0036C58.4883 55.0519 65.5525 39.3906 74.5551 39.3906C83.5577 39.3906 90.6219 55.0519 90.6219 75.0036C90.6219 94.9553 83.5577 110.617 74.5551 110.617ZM74.5551 42.2049C71.2947 42.2049 67.9775 45.5465 65.4714 51.3779C62.7868 57.6635 61.2864 66.0578 61.2864 75.0279C61.2864 83.9981 62.7544 92.36 65.4714 98.678C67.9775 104.501 71.2703 107.851 74.5551 107.851C77.8398 107.851 81.1326 104.509 83.6388 98.678C86.3233 92.3924 87.8238 83.9981 87.8238 75.0279C87.8238 66.0578 86.3558 57.6959 83.6388 51.3779C81.1326 45.5221 77.8155 42.2049 74.5551 42.2049Z" fill="#FBAF17"/>
<path d="M74.5563 110.617C54.9209 110.617 38.9434 94.639 38.9434 75.0036C38.9434 55.3682 54.9209 39.3906 74.5563 39.3906C94.1917 39.3906 110.169 55.3682 110.169 75.0036C110.169 94.639 94.1917 110.617 74.5563 110.617ZM74.5563 42.2049C56.4781 42.2049 41.7658 56.9092 41.7658 74.9955C41.7658 93.0818 56.47 107.786 74.5563 107.786C92.6426 107.786 107.347 93.0818 107.347 74.9955C107.347 56.9092 92.6426 42.2049 74.5563 42.2049Z" fill="#FBAF17"/>
<path d="M74.5576 60.7476C64.1763 60.7476 54.4032 58.7281 47.0713 55.0378C46.3819 54.6891 46.09 53.8537 46.4387 53.1319C46.7875 52.4425 47.6228 52.1505 48.3447 52.4993C55.2953 55.9868 64.6061 57.8927 74.5576 57.8927C84.5091 57.8927 93.8199 55.9624 100.771 52.4993C101.46 52.1505 102.295 52.4425 102.677 53.1319C103.025 53.8213 102.733 54.6566 102.044 55.0378C94.7202 58.7281 84.939 60.7476 74.5576 60.7476Z" fill="#FBAF17"/>
<path d="M101.411 97.6052C101.208 97.6052 100.981 97.5485 100.778 97.4593C93.8278 93.9718 84.517 92.0658 74.5655 92.0658C64.6139 92.0658 55.3031 93.9961 48.3525 97.4593C47.6631 97.808 46.8277 97.516 46.4465 96.8266C46.0978 96.1373 46.3898 95.3019 47.0791 94.9207C54.4029 91.2548 64.1841 89.2109 74.5655 89.2109C84.9468 89.2109 94.7199 91.2304 102.052 94.9207C102.741 95.2694 103.033 96.1048 102.684 96.8266C102.425 97.3133 101.938 97.6052 101.419 97.6052H101.411Z" fill="#FBAF17"/>
<path d="M108.758 76.4006H40.3546C39.576 76.4006 38.9434 75.7679 38.9434 74.9893C38.9434 74.2107 39.576 73.5781 40.3546 73.5781H108.758C109.537 73.5781 110.169 74.2107 110.169 74.9893C110.169 75.7679 109.537 76.4006 108.758 76.4006Z" fill="#FBAF17"/>
</g>
</svg>
