<svg width="150" height="150" viewBox="0 0 150 150" fill="none" xmlns="http://www.w3.org/2000/svg">
<g opacity="0.9">
<path d="M50.5118 124H32.5941C29.9692 124 27.835 121.866 27.835 119.241V106.048H22.5509C19.4871 106.048 17 103.561 17 100.497V52.0194C17 51.4341 17.2668 50.8834 17.7143 50.5219L34.1862 37.2256V32.7849C34.2637 29.5146 36.9745 26.9242 40.2448 27.0017C43.3946 27.0791 45.942 29.6007 46.0281 32.7505V36.4769L58.2314 36.7867C58.8166 36.8039 59.3588 37.0793 59.7116 37.5441L76.9667 60.1692C81.5364 54.7475 84.6862 48.2671 86.1148 41.3221C86.7861 37.9657 89.738 35.5561 93.1632 35.5819C99.4886 35.5905 104.609 40.7197 104.626 47.0365V66.0988H119.403C124.171 66.1504 127.983 70.0575 127.923 74.8253C127.906 76.5637 127.355 78.2505 126.365 79.6705C130.969 80.9269 133.68 85.6688 132.432 90.2731C131.632 93.2163 129.326 95.5227 126.382 96.3317C129.128 100.265 128.155 105.678 124.222 108.423C123.258 109.094 122.165 109.568 121.021 109.8C123.706 113.716 122.708 119.069 118.783 121.754C117.372 122.718 115.702 123.243 113.99 123.26H75.2541C69.2385 123.888 66.321 117.305 61.0197 117.296H55.2623V119.241C55.2279 121.857 53.1108 123.966 50.4946 124H50.5118ZM31.6818 106.048V119.241C31.6818 119.74 32.0949 120.145 32.5941 120.153H50.5118C51.0023 120.127 51.3982 119.731 51.424 119.241V105.764C51.097 106.332 32.5769 105.936 31.6818 106.048ZM61.5361 113.432C67.1042 113.217 70.0905 119.43 75.125 119.413H113.972C116.58 119.37 118.671 117.227 118.628 114.611C118.594 112.029 116.494 109.955 113.912 109.946H102.707C101.64 109.929 100.797 109.051 100.823 107.984C100.84 106.952 101.675 106.117 102.707 106.1H119.411C122.036 106.048 124.119 103.888 124.076 101.263C124.033 98.7069 121.959 96.6415 119.403 96.5985H102.716C101.649 96.5813 100.805 95.7035 100.831 94.6363C100.848 93.6036 101.683 92.7688 102.716 92.7516H124.257C126.882 92.7344 128.999 90.6001 128.981 87.9753C128.964 85.3762 126.864 83.2678 124.257 83.2506C123.62 83.2506 119.997 83.2333 119.455 83.2936H102.724C101.649 83.285 100.788 82.3986 100.797 81.3228C100.805 80.2643 101.666 79.4123 102.724 79.3951H120.014C122.613 79.025 124.412 76.6153 124.042 74.0163C123.706 71.7099 121.752 69.9801 119.42 69.9457H102.724C101.666 69.9457 100.797 69.0851 100.797 68.0265V47.0451C100.797 42.8453 97.3887 39.4374 93.189 39.4288C91.6141 39.4202 90.2457 40.5131 89.9101 42.045C88.2922 49.9195 84.669 57.2432 79.3849 63.3104L89.1786 76.1076C91.0031 78.5603 90.5469 82.0113 88.1459 83.9046L66.5362 100.394C64.0835 102.235 60.598 101.762 58.7219 99.3352L55.2881 94.8342V113.449C55.6238 113.449 61.4242 113.449 61.5447 113.423L61.5361 113.432ZM29.7627 102.192H49.677C50.6151 102.192 51.381 101.426 51.381 100.488C51.381 95.3162 51.381 57.1657 51.381 52.9316L38.0417 42.1913V45.7112C40.83 46.7783 42.2242 49.9023 41.1657 52.6906C40.0985 55.479 36.9745 56.8731 34.1862 55.8146C31.3979 54.7475 30.0037 51.6235 31.0622 48.8351C31.613 47.3979 32.749 46.2619 34.1862 45.7112V42.1655L20.8469 52.9316V100.488C20.8469 101.426 21.6128 102.192 22.5509 102.192H29.7627ZM55.2795 88.4916L61.7685 97.003C62.3623 97.7517 63.4466 97.898 64.2039 97.3214L85.7706 80.8667C86.5193 80.2815 86.6656 79.2143 86.1062 78.4484C79.5313 69.8682 63.92 49.4117 57.2159 40.6164L41.7251 40.2291L54.5136 50.5219C54.9697 50.8834 55.2279 51.4428 55.2279 52.0194C55.2107 63.4912 55.3053 77.0628 55.2795 88.4916ZM34.5132 50.7715C34.4788 51.5891 35.1156 52.2775 35.9332 52.312C35.9935 52.312 36.0537 52.312 36.1053 52.312C36.9573 52.3292 37.663 51.6579 37.6888 50.8059C37.706 49.9539 37.0348 49.2482 36.1828 49.2224C36.157 49.2224 36.1312 49.2224 36.1053 49.2224C35.2878 49.1622 34.5735 49.7732 34.5132 50.5908C34.5132 50.651 34.5132 50.7026 34.5132 50.7629V50.7715ZM38.0331 36.279L42.1812 36.3822V32.7849C42.1467 31.6403 41.2001 30.7367 40.0555 30.7711C38.9453 30.8055 38.0503 31.7092 38.0417 32.8194V36.279H38.0331ZM36.1053 93.2421C34.1087 93.1905 34.0915 91.2455 34.1776 89.7395H31.1741C30.107 89.7223 29.2636 88.8445 29.2894 87.7773C29.3066 86.7446 30.1414 85.9098 31.1741 85.8926H36.1053C37.7663 85.8582 39.0744 84.4812 39.04 82.8203C39.0056 81.2023 37.6888 79.9028 36.0709 79.8856C32.2757 79.8168 29.2549 76.6756 29.3238 72.8803C29.384 69.9112 31.3376 67.3122 34.1776 66.443V64.6013C34.1948 63.5342 35.0726 62.6908 36.1398 62.7166C37.1725 62.7338 38.0073 63.5686 38.0245 64.6013V66.1762H41.028C42.0951 66.1935 42.9385 67.0713 42.9127 68.1384C42.8955 69.1711 42.0607 70.0059 41.028 70.0231H36.0967C34.4358 70.0576 33.1277 71.4345 33.1621 73.0955C33.1965 74.7134 34.5132 76.0129 36.1312 76.0301C39.9264 76.099 42.9471 79.2402 42.8783 83.0354C42.8266 86.0045 40.8645 88.6035 38.0245 89.4813C38.0761 91.0304 38.2224 93.1905 36.0967 93.2507L36.1053 93.2421Z" fill="#FBAF17"/>
</g>
</svg>
